<?xml version="1.0" standalone="no"?><!DOCTYPE svg PUBLIC "-//W3C//DTD SVG 1.1//EN" "http://www.w3.org/Graphics/SVG/1.1/DTD/svg11.dtd"><svg t="1604486467400" class="icon" viewBox="0 0 1365 1024" version="1.1" xmlns="http://www.w3.org/2000/svg" p-id="11533" xmlns:xlink="http://www.w3.org/1999/xlink" width="266.6015625" height="200"><defs><style type="text/css"></style></defs><path d="M807.651556 155.591111l-236.373334 202.979556a20.138667 20.138667 0 0 1-23.438222 1.991111L290.816 206.506667a20.138667 20.138667 0 0 0-24.234667 2.730666L22.528 442.936889a20.024889 20.024889 0 0 0-6.200889 14.506667v227.896888c0 17.749333 21.276444 26.737778 34.019556 14.506667l215.210666-207.018667a20.081778 20.081778 0 0 1 24.234667-2.844444l295.708444 175.274667c6.769778 3.982222 15.189333 3.697778 21.617778-0.739556l240.298667-166.001778a20.48 20.48 0 0 1 6.371555-2.958222l474.510223-122.481778a20.024889 20.024889 0 0 0 15.132444-19.456V31.687111a20.138667 20.138667 0 0 0-25.486222-19.342222l-502.556445 139.093333a20.366222 20.366222 0 0 0-7.736888 4.152889z m40.675555 421.376l-237.226667 165.717333a20.138667 20.138667 0 0 1-21.731555 0.853334L290.702222 568.32a20.138667 20.138667 0 0 0-24.064 2.844444l-244.053333 233.699556a20.024889 20.024889 0 0 0-6.257778 14.506667v182.044444c0 11.093333 8.988444 20.081778 20.081778 20.081778h1286.883555a20.138667 20.138667 0 0 0 20.138667-20.081778V473.6c0-13.141333-12.401778-22.755556-25.144889-19.456l-463.473778 119.864889a20.309333 20.309333 0 0 0-6.485333 2.958222z" p-id="11534"></path></svg>