<?xml version="1.0" standalone="no"?><!DOCTYPE svg PUBLIC "-//W3C//DTD SVG 1.1//EN" "http://www.w3.org/Graphics/SVG/1.1/DTD/svg11.dtd"><svg t="1611654892052" class="icon" viewBox="0 0 1024 1024" version="1.1" xmlns="http://www.w3.org/2000/svg" p-id="7452" xmlns:xlink="http://www.w3.org/1999/xlink" width="32" height="32"><defs><style type="text/css"></style></defs><path d="M245.81 789.804a29.997 29.997 0 0 1-29.634-34.698c0.546-3.444 11.518-72.604 18.568-113.498C162.542 587.201 120 502.541 120 411.347c0-77.02 29.993-149.43 84.455-203.892C258.917 152.993 331.327 123 408.347 123s149.43 29.993 203.892 84.455c54.462 54.461 84.455 126.872 84.455 203.892s-29.994 149.43-84.456 203.891c-52.142 52.142-120.731 81.855-194.071 84.292-57.644 39.956-155.41 85.479-159.734 87.486a29.951 29.951 0 0 1-12.623 2.788zM408.347 183C282.436 183 180 285.436 180 411.347c0 77.572 38.875 149.181 103.992 191.551a30.002 30.002 0 0 1 13.125 30.674c-2.847 15.188-7.945 45.892-12.482 73.749 34.327-17.545 78.103-41.349 105.953-61.806a30.007 30.007 0 0 1 17.76-5.821c125.911 0 228.347-102.436 228.347-228.347C636.693 285.436 534.258 183 408.347 183z" fill="#F9C73D" p-id="7453"></path><path d="M876 524.058c0-119.869-97.173-217.041-217.041-217.041-2.031 0-4.055 0.033-6.073 0.089 13.293 31.127 20.659 65.39 20.659 101.377 0 117.714-78.733 217.028-186.407 248.185 36.911 47.754 93.279 79.704 157.23 83.949 4.822 0.32 152.804 73.76 152.804 73.76s-13.06-112.925-9.701-115.397C841.161 659.469 876 595.832 876 524.058z" fill="#FFEABB" p-id="7454"></path><path d="M797.17 844.376a29.972 29.972 0 0 1-13.333-3.127c-60.807-30.177-129.635-63.825-146.106-71.052-68.643-5.866-131.967-40.378-174.328-95.184a30 30 0 0 1 15.398-47.164c97-28.068 164.745-118.275 164.745-219.367 0-31.096-6.14-61.24-18.249-89.595a29.999 29.999 0 0 1 26.763-41.771c2.447-0.067 4.704-0.1 6.9-0.1 65.987 0 128.024 25.697 174.685 72.356C880.303 396.033 906 458.071 906 524.058c0 39.381-9.504 78.573-27.483 113.341-15.038 29.08-36.028 55.193-61.195 76.264 1.314 20.044 5.53 61.624 9.653 97.268a30 30 0 0 1-29.805 33.445zM540.024 668.399c29.951 24.684 67.08 39.678 106.331 42.282 7.375 0.49 8.909 0.592 89.41 39.988 8.736 4.275 17.466 8.562 25.716 12.62l-0.271-2.709c-1.682-16.875-2.883-30.49-3.569-40.47-1.333-19.371-2.385-34.672 12.048-45.294C817.473 639.653 846 583.295 846 524.058c0-90.627-64.79-166.407-150.482-183.455 5.337 22.077 8.027 44.776 8.027 67.879 0 63.755-20.394 124.183-58.975 174.749-27.613 36.192-63.779 65.484-104.546 85.168z" fill="#F9C73D" p-id="7455"></path></svg>