<?xml version="1.0" standalone="no"?><!DOCTYPE svg PUBLIC "-//W3C//DTD SVG 1.1//EN" "http://www.w3.org/Graphics/SVG/1.1/DTD/svg11.dtd"><svg t="1609763167341" class="icon" viewBox="0 0 1024 1024" version="1.1" xmlns="http://www.w3.org/2000/svg" p-id="7197" xmlns:xlink="http://www.w3.org/1999/xlink" width="32" height="32"><defs><style type="text/css"></style></defs><path d="M448 480h-128a32 32 0 0 1 0-64h128a32 32 0 0 1 0 64z" fill="#4A8BFE" p-id="7198"></path><path d="M704 544h-128a32 32 0 0 1 0-64h128a32 32 0 0 1 0 64zM128 544H64a32 32 0 0 1 0-64h64a32 32 0 0 1 0 64z" fill="#3BD5B3" p-id="7199"></path><path d="M960 544h-128a32 32 0 0 1 0-64h128a32 32 0 0 1 0 64z" fill="#4A8BFE" p-id="7200"></path><path d="M640 864h-64a32 32 0 0 1 0-64h64a32 32 0 0 1 0 64zM224 864H64a32 32 0 0 1 0-64h160a32 32 0 0 1 0 64z" fill="#3BD5B3" p-id="7201"></path><path d="M960 864h-128a32 32 0 0 1 0-64h128a32 32 0 0 1 0 64z" fill="#4A8BFE" p-id="7202"></path><path d="M640 224h-64a32 32 0 0 1 0-64h64a32 32 0 0 1 0 64zM160 224H64a32 32 0 0 1 0-64h96a32 32 0 0 1 0 64z" fill="#3BD5B3" p-id="7203"></path><path d="M928 224h-96a32 32 0 0 1 0-64h96a32 32 0 0 1 0 64zM384 608a32 32 0 0 1-32-32v-128a32 32 0 0 1 64 0v128a32 32 0 0 1-32 32zM448 160h-128a32 32 0 0 1 0-64h128a32 32 0 0 1 0 64z" fill="#4A8BFE" p-id="7204"></path><path d="M384 288a32 32 0 0 1-32-32V128a32 32 0 0 1 64 0v128a32 32 0 0 1-32 32zM448 800h-128a32 32 0 0 1 0-64h128a32 32 0 0 1 0 64z" fill="#4A8BFE" p-id="7205"></path><path d="M384 928a32 32 0 0 1-32-32v-128a32 32 0 0 1 64 0v128a32 32 0 0 1-32 32z" fill="#4A8BFE" p-id="7206"></path></svg>