<?xml version="1.0" standalone="no"?><!DOCTYPE svg PUBLIC "-//W3C//DTD SVG 1.1//EN" "http://www.w3.org/Graphics/SVG/1.1/DTD/svg11.dtd"><svg t="1610439004580" class="icon" viewBox="0 0 1024 1024" version="1.1" xmlns="http://www.w3.org/2000/svg" p-id="6486" xmlns:xlink="http://www.w3.org/1999/xlink" width="32" height="32"><defs><style type="text/css"></style></defs><path d="M423.537 949c0 1.1-0.9 2-2 2H101.673c-1.1 0-2-0.9-2-2V72.647c0-1.1 0.9-2 2-2h319.863c1.1 0 2 0.9 2 2V949z m-247.661-76.203c0 1.1 0.9 2 2 2h167.458c1.1 0 2-0.9 2-2V148.85c0-1.1-0.9-2-2-2H177.876c-1.1 0-2 0.9-2 2v723.947zM931.545 949c0 1.1-0.9 2-2 2H609.7c-1.1 0-2-0.9-2-2V72.647c0-1.1 0.9-2 2-2h319.845c1.1 0 2 0.9 2 2V949z m-247.642-76.203c0 1.1 0.9 2 2 2h167.438c1.1 0 2-0.9 2-2V148.85c0-1.1-0.9-2-2-2H685.903c-1.1 0-2 0.9-2 2v723.947z" fill="#F29600" p-id="6487"></path><path d="M710.377 612.218l-101.431 0.112c-37.729 0.074-70.547-20.541-87.998-51.05h84.612c1.153 0.072 2.27 0.334 3.461 0.334l101.43-0.112c28.019-0.075 50.754-22.808 50.789-50.79 0.038-28.017-22.658-50.715-50.641-50.678l-101.468 0.112h-0.036l0.036-0.038h-87.663c17.638-30.213 50.269-50.604 87.738-50.678l101.43-0.111c56.037-0.075 101.394 45.282 101.319 101.319-0.073 56.036-45.542 101.505-101.578 101.58" fill="#F29600" p-id="6488"></path><path d="M463.926 536.572v-0.093c-6.642 0.038-13.302-2.456-18.399-7.516-10.046-10.065-10.046-26.381 0-36.427 5.283-5.266 12.26-7.685 19.162-7.441h88.408c6.92-0.262 13.878 2.176 19.162 7.441 10.047 10.046 10.047 26.362 0 36.427-4.985 4.967-11.497 7.46-18.027 7.516v0.093h-90.306z" fill="#F29600" p-id="6489"></path><path d="M414.531 460.034l-101.43 0.112c-28.018 0.074-50.753 22.809-50.79 50.789-0.075 28.018 22.623 50.716 50.641 50.679l101.467-0.112c0.707 0 1.377-0.186 2.083-0.222h85.729c-17.563 30.362-50.306 50.862-87.886 50.938l-101.468 0.112c-55.999 0.074-101.393-45.284-101.318-101.32 0.074-56.035 45.543-101.505 101.579-101.579l101.468-0.111c37.581-0.038 70.324 20.427 87.775 50.789h-87.18c-0.222 0-0.446-0.075-0.67-0.075" fill="#F29600" p-id="6490"></path></svg>