<?xml version="1.0" standalone="no"?><!DOCTYPE svg PUBLIC "-//W3C//DTD SVG 1.1//EN" "http://www.w3.org/Graphics/SVG/1.1/DTD/svg11.dtd"><svg t="1609750394089" class="icon" viewBox="0 0 1024 1024" version="1.1" xmlns="http://www.w3.org/2000/svg" p-id="2074" xmlns:xlink="http://www.w3.org/1999/xlink" width="32" height="32"><defs><style type="text/css"></style></defs><path d="M32.300868 22.048374h395.841815v979.903252H32.300868z" fill="#FFFFFF" p-id="2075"></path><path d="M428.142683 1024H32.300868a22.048374 22.048374 0 0 1-22.048374-22.048374V22.048374a22.048374 22.048374 0 0 1 22.048374-22.048374h395.841815a22.048374 22.048374 0 0 1 22.048374 22.048374v979.903252a22.048374 22.048374 0 0 1-22.048374 22.048374z m-373.79344-44.096749h351.745065V44.096749H54.349243z" fill="#888888" p-id="2076"></path><path d="M595.930812 22.048374h395.841814v979.903252H595.930812z" fill="#FFFFFF" p-id="2077"></path><path d="M991.699132 1024H595.930812a22.048374 22.048374 0 0 1-22.048375-22.048374V22.048374a22.048374 22.048374 0 0 1 22.048375-22.048374h395.76832a22.048374 22.048374 0 0 1 22.048374 22.048374v979.903252a22.048374 22.048374 0 0 1-22.048374 22.048374z m-373.719946-44.096749h351.671571V44.096749H617.979186z" fill="#888888" p-id="2078"></path><path d="M348.621546 512.036747L140.337903 267.446781v489.179933l208.283643-244.589967zM678.244743 512.036747l208.357137 244.589967V267.446781L678.244743 512.036747z" fill="#04BEBD" p-id="2079"></path></svg>