<?xml version="1.0" standalone="no"?><!DOCTYPE svg PUBLIC "-//W3C//DTD SVG 1.1//EN" "http://www.w3.org/Graphics/SVG/1.1/DTD/svg11.dtd"><svg t="1612349071170" class="icon" viewBox="0 0 1306 1024" version="1.1" xmlns="http://www.w3.org/2000/svg" p-id="9993" xmlns:xlink="http://www.w3.org/1999/xlink" width="40.8125" height="32"><defs><style type="text/css"></style></defs><path d="M233.80726 648.509039m-64.136655 0a64.136655 64.136655 0 1 0 128.27331 0 64.136655 64.136655 0 1 0-128.27331 0Z" fill="#FFE10B" p-id="9994"></path><path d="M420.96968 648.509039m-64.136655 0a64.136655 64.136655 0 1 0 128.27331 0 64.136655 64.136655 0 1 0-128.27331 0Z" fill="#FFE10B" p-id="9995"></path><path d="M606.237153 648.509039m-64.136655 0a64.136655 64.136655 0 1 0 128.27331 0 64.136655 64.136655 0 1 0-128.27331 0Z" fill="#FFE10B" p-id="9996"></path><path d="M1206.789466 419.949324V37.898932c0-20.990178-16.908754-37.898932-37.898932-37.898932h-3.061068c-20.990178 0-37.898932 16.908754-37.898932 37.898932v382.050392H102.035587c-56.411103 0-102.035587 45.624484-102.035587 102.035587v261.794164c0 56.411103 45.624484 102.035587 102.035587 102.035587h100.432171L151.59573 947.76484c-16.325694 19.969822-13.410391 49.268612 6.413665 65.594306 8.745907 7.142491 19.095231 10.640854 29.59032 10.640854 13.410391 0 26.820783-5.830605 36.003986-17.05452l93.28968-113.551032c2.040712-2.478007 3.644128-4.956014 5.101779-7.579786h665.709324c1.457651 2.623772 3.206833 5.247544 5.247544 7.725552l93.872741 113.551032c9.183203 11.223915 22.593594 16.908754 36.003985 16.908754 10.495089 0 20.990178-3.498363 29.736086-10.640854 19.824057-16.471459 22.593594-45.770249 6.2679-65.740071l-51.163559-61.804413H1204.019929c56.411103 0 102.035587-45.624484 102.035587-102.035587V521.984911c0-55.390747-44.166833-100.432171-99.26605-102.035587zM1227.342349 783.779075c0 12.827331-10.495089 23.32242-23.32242 23.32242H102.035587c-12.827331 0-23.32242-10.495089-23.32242-23.32242V521.984911c0-12.827331 10.495089-23.32242 23.32242-23.32242h1101.984342c12.827331 0 23.32242 10.495089 23.32242 23.32242v261.794164z" fill="#2D70F7" p-id="9997"></path></svg>