<?xml version="1.0" standalone="no"?><!DOCTYPE svg PUBLIC "-//W3C//DTD SVG 1.1//EN" "http://www.w3.org/Graphics/SVG/1.1/DTD/svg11.dtd"><svg t="1618802886597" class="icon" viewBox="0 0 1024 1024" version="1.1" xmlns="http://www.w3.org/2000/svg" p-id="6684" xmlns:xlink="http://www.w3.org/1999/xlink" width="32" height="32"><defs><style type="text/css"></style></defs><path d="M307.323 502.888l0.263-0.006-0.263-0.175h-0.09c0-10.796 8.85-19.56 19.751-19.56H594.442c10.9 0 19.753 8.765 19.753 19.56 0 10.796-8.853 19.563-19.753 19.563h-191.81c36.976 17.563 67.742 45.758 88.289 80.898h27.955c0.529 0.035 1.048 0.104 1.566 0.182 4.66 0.368 9.068 2.344 12.395 5.647a19.498 19.498 0 0 1 5.778 13.82c-0.052 10.771-8.872 19.473-19.739 19.473h-10.443c15.341 47.368 12.4 98.695-8.227 144.058h96.661c58.913-0.211 106.576-47.5 106.687-105.835V488.425l-1.089-110.927c-0.112-16.334-6.568-31.998-18.025-43.761l-2.263-2.314-40.127-39.748c-4.577-4.448-11.72-5.01-16.953-1.332-26.733 17.813-56.678 30.396-88.188 37.064a13.694 13.694 0 0 0-9.021 7.495c-12.406 25.324-39.845 39.877-68.013 36.034-28.154-3.84-50.612-25.182-55.643-52.874-5.052-27.71 8.497-55.481 33.518-68.803 25.036-13.333 55.89-9.181 76.439 10.26a12.6 12.6 0 0 0 11.538 3.589 195.034 195.034 0 0 0 46.533-16.971c3.647-1.976 6.162-5.548 6.739-9.621 0.595-4.072-0.809-8.199-3.758-11.093l-33.097-32.87c-41.796-41.359-109.522-41.359-151.319 0L249.073 332.316l-2.425 3.306c-7.87 10.878-12.072 23.938-11.992 37.327V519.23a203.625 203.625 0 0 1 72.667-16.342z" fill="#FFBA00" opacity=".4" p-id="6685"></path><path d="M482.263 278.995c-5.314-0.28-10.507 1.591-14.376 5.202a19.08 19.08 0 0 0-6.093 13.907c-0.453 10.785 7.973 19.881 18.843 20.365h4.061c19.026 0 99.187-3.557 160.695-61.254l0.991-0.988c25.651-29.725 36.198-69.414 28.671-107.789-1.08-7.223-6.142-13.242-13.112-15.627a19.84 19.84 0 0 0-20.036 4.332 19.393 19.393 0 0 0-5.354 19.595c4.951 25.799-1.95 52.445-18.852 72.696-56.535 51.89-134.539 49.561-135.438 49.561z" fill="#FFBA00" opacity=".4" p-id="6686"></path><path d="M341.411 786.438h158.702c20.642-45.387 23.57-96.755 8.214-144.146H334.742c-7.354 0.502-14.376-3.111-18.205-9.35a19.411 19.411 0 0 1 0-20.319c3.829-6.249 10.85-9.849 18.205-9.351h156.179c-20.58-35.216-51.415-63.445-88.471-81.003h-75.465c-10.801-0.05-19.55-8.687-19.661-19.381a203.63 203.63 0 0 0-72.668 16.342v161.282c0.051 58.414 47.786 105.779 106.755 105.926z" fill="#FEC744" opacity=".4" p-id="6687"></path><path d="M530.462 354.196c25.034-13.334 55.881-9.181 76.437 10.259a12.603 12.603 0 0 0 11.538 3.589 195.472 195.472 0 0 0 46.534-16.97c3.647-1.975 6.152-5.548 6.738-9.62 0.595-4.073-0.819-8.198-3.768-11.09l-33.098-32.874c-41.785-41.358-109.522-41.358-151.307 0l-141.75 139.76-2.436 3.309c-7.858 10.875-12.063 23.938-11.992 37.327v146.28c23.074-9.901 47.817-15.433 72.952-16.343l-0.273-0.181c0-10.8 8.851-19.562 19.751-19.562h267.359c10.367 0.695 18.408 9.224 18.408 19.521 0 10.285-8.041 18.82-18.408 19.509H495.164c37.057 17.563 67.891 45.791 88.472 80.993h27.941c10.376 0.704 18.418 9.233 18.418 19.519s-8.044 18.819-18.418 19.528h-10.466c15.363 47.391 12.445 98.743-8.194 144.123h96.665c58.898-0.201 106.572-47.496 106.676-105.828V593.356l-1.082-110.925c-0.122-16.334-6.576-32-18.033-43.762l-2.265-2.316-40.117-39.748c-4.578-4.44-11.716-5.007-16.963-1.331-26.729 17.816-56.664 30.397-88.178 37.071a13.699 13.699 0 0 0-9.032 7.49c-12.393 25.325-39.846 39.877-68 36.036-28.154-3.84-50.626-25.186-55.655-52.88-5.042-27.702 8.496-55.473 33.529-68.795z" fill="#FFBA00" p-id="6688"></path><path d="M574.976 383.927c-5.312-0.279-10.519 1.591-14.376 5.203a19.115 19.115 0 0 0-6.104 13.91c-0.442 10.786 7.974 19.881 18.853 20.365h4.062c19.025 0 99.189-3.558 160.683-61.254l1.002-0.986c25.64-29.732 36.199-69.414 28.671-107.79-1.091-7.226-6.142-13.243-13.113-15.623-6.972-2.386-14.691-0.721-20.034 4.327-5.345 5.024-7.417 12.577-5.355 19.597 4.95 25.8-1.957 52.445-18.862 72.695-56.537 51.887-134.538 49.556-135.427 49.556zM427.455 708.208h156.179c-20.579-35.215-51.413-63.448-88.47-81.007h-75.467c-10.799-0.055-19.559-8.686-19.661-19.379a203.692 203.692 0 0 0-72.678 16.344v161.281c0.05 58.413 47.795 105.778 106.754 105.918h158.713a199.529 199.529 0 0 0 8.216-144.138H427.455c-7.364 0.5-14.387-3.113-18.213-9.35a19.452 19.452 0 0 1 0-20.32c3.826-6.253 10.849-9.849 18.213-9.349z" fill="#FFBA00" p-id="6689"></path><path d="M427.455 708.208h156.179c-20.579-35.215-51.413-63.448-88.47-81.007h-75.467c-10.799-0.055-19.559-8.686-19.661-19.379a203.692 203.692 0 0 0-72.678 16.344v161.281c0.05 58.413 47.795 105.778 106.754 105.918h158.713a199.529 199.529 0 0 0 8.216-144.138H427.455c-7.364 0.5-14.387-3.113-18.213-9.35a19.452 19.452 0 0 1 0-20.32c3.826-6.253 10.849-9.849 18.213-9.349z" fill="#FEC744" p-id="6690"></path></svg>