<?xml version="1.0" encoding="UTF-8"?>
<svg width="16px" height="16px" viewBox="0 0 16 16" version="1.1" xmlns="http://www.w3.org/2000/svg" xmlns:xlink="http://www.w3.org/1999/xlink">
    <!-- Generator: Sketch 56.1 (81669) - https://sketch.com -->
    <title>形状</title>
    <desc>Created with Sketch.</desc>
    <g id="工作台首页" stroke="none" stroke-width="1" fill="none" fill-rule="evenodd">
        <g id="小微园SAAS工作台" transform="translate(-874.000000, -823.000000)" fill="#FFFFFF" fill-rule="nonzero">
            <g id="编组-19" transform="translate(834.000000, 769.000000)">
                <g id="编组-17">
                    <g id="编组-23" transform="translate(33.000000, 11.000000)">
                        <g id="编组-18" transform="translate(0.000000, 36.000000)">
                            <g id="企业-(1)" transform="translate(7.000000, 7.000000)">
                                <path d="M7.95238095,0.0143964603 C3.56834551,0.0143964603 0.0143964603,3.56834551 0.0143964603,7.95238095 C0.0143964603,12.3364164 3.56834552,15.8903654 7.95238095,15.8903654 C12.3364164,15.8903654 15.8903654,12.3364164 15.8903654,7.95238095 C15.8903654,3.56834552 12.3364164,0.0143964603 7.95238095,0.0143964603 Z M8.01361683,12.9128653 C7.78303727,12.9128653 5.47119379,10.9676811 5.47119379,10.6785116 C5.47119379,10.3889642 7.35022813,5.17711038 7.35022813,5.17711037 C7.35022813,5.17711035 6.28956221,3.85033295 6.10850056,3.62466741 C5.9270609,3.39900186 5.96032484,2.98736065 6.47289184,2.98736065 L9.55169583,2.98736065 C10.0669088,2.98736065 10.0975268,3.39673386 9.91646511,3.62466741 C9.73502546,3.85033297 8.67435954,5.17711038 8.67435954,5.17711037 C8.67435954,5.17711035 10.5537719,10.3912322 10.5537719,10.6807796 C10.5537719,10.9676811 8.24419638,12.9128653 8.01361683,12.9128653 Z" id="形状"></path>
                            </g>
                        </g>
                    </g>
                </g>
            </g>
        </g>
    </g>
</svg>